<svg width="116" height="109" viewBox="0 0 116 109" fill="none" xmlns="http://www.w3.org/2000/svg">
<path fill-rule="evenodd" clip-rule="evenodd" d="M65.0105 5.88904C60.7508 10.8817 58.157 13.4019 57.0428 26.8251C56.0525 46.0439 50.2104 47.7226 30.2625 49.3128C15.9365 50.4549 12.6896 48.9907 6.97853 52.3706C-4.11027 58.9338 -1.12135 71.4489 11.7432 72.3194C17.189 72.6879 17.6467 73.3515 19.1233 83.0208C19.9693 88.5589 20.5967 89.0581 30.1077 91.7579C34.1254 92.8983 36.1996 95.3404 38.1617 101.239C44.0257 118.869 59.4684 103.96 59.6595 80.4838C59.7956 63.7709 67.6236 57.3229 84.1046 59.1026C107.853 61.6671 126.396 49.6539 109.176 41.6081C103.402 38.9102 101.187 36.5862 100.577 32.5843C99.1329 23.1105 98.7085 22.441 93.1488 20.8609C83.4082 18.0932 82.8253 17.571 83.2295 11.9787C84.1028 -0.107149 75.1368 -3.53292 65.0105 5.88904ZM69.4494 37.3894C67.5605 45.3039 70.079 47.5789 79.1863 45.6808C81.419 45.1601 81.1188 47.3507 77.8955 48.8726C74.6722 50.3942 70.4765 50.8575 67.7217 51.7868C59.6595 54.5064 54.983 61.6831 53.2539 64.5039C50.8763 68.3825 51.1427 67.2601 49.6056 71.6854C47.2492 78.4692 41.4071 80.7305 41.7965 78.8461C43.9269 68.5381 43.0826 65.1002 37.1228 63.7709C33.1482 62.8845 30.1077 63.0172 29.3792 60.967C28.6507 58.9168 44.5275 58.5 48.8071 57.1445C54.3433 55.0442 59.7308 50.5452 62.4388 46.0439C64.6403 40.1713 67.7817 31.0356 69.0014 32.391C69.5634 33.0155 69.7035 35.5212 69.4494 37.3894Z" fill="#FF9914"/>
</svg>
